#!OML:ASF I:\Actors\actors\Patient Classification 2\Patient 1\Session 1\actor1.ASF
:FULLY-SPECIFIED
:DEGREES
203
root -0.972841 17.1779 6.69095 -8.87343 -39.1913 4.74345
lowerback 8.20148 -8.24859 11.9748
upperback -0.116138 -9.56264 11.3727
thorax -4.63909 -4.96424 6.77675
lowerneck -18.359 16.8877 17.3766
upperneck 7.87042 21.7052 -18.9829
head 9.53787 9.38856 -5.58501
rclavicle -1.90833e-014 -9.85972e-014
rhumerus -12.8761 -33.0381 -20.8221
rradius 89.0764
rwrist -30.7917
rhand -27.9787 -23.9025
rfingers 7.12502
rthumb -1.36537 -53.8779
lclavicle -1.90833e-014 -9.85972e-014
lhumerus 24.0407 -16.6673 36.6366
lradius 33.4931
lwrist -7.60528
lhand -4.01935 -31.3793
lfingers 7.12502
lthumb 21.7354 -2.57961
rfemur 33.8324 24.806 12.9202
rtibia -43.4634
rfoot 10.6446 -13.0954
rtoes -9.74556
lfemur 40.9498 28.5566 -16.1198
ltibia -31.5033
lfoot 0.719091 20.0707
ltoes -16.6474
204
root -0.963614 17.1703 6.72079 -8.87251 -39.6127 4.87278
lowerback 8.55243 -8.55353 11.6417
upperback -0.668425 -9.85433 12.1251
thorax -5.23336 -5.12074 7.96307
lowerneck -16.5272 16.8644 16.6874
upperneck 7.20095 22.1202 -19.3796
head 9.0662 9.67684 -5.63385
rclavicle -7.63333e-014 -1.08139e-013
rhumerus -12.2423 -33.0595 -17.5364
rradius 89.5448
rwrist -31.0717
rhand -27.989 -24.0745
rfingers 7.12502
rthumb -1.37533 -54.0498
lclavicle -7.63333e-014 -1.08139e-013
lhumerus 19.6187 -15.9914 37.3768
lradius 33.265
lwrist -8.13201
lhand -5.24392 -31.0441
lfingers 7.12502
lthumb 20.559 -2.11273
rfemur 33.7894 25.3332 12.7826
rtibia -43.6422
rfoot 10.67 -13.1941
rtoes -9.97687
lfemur 40.8885 28.5964 -16.4251
ltibia -31.5063
lfoot 0.583447 20.2743
ltoes -16.7711
205
root -0.95296 17.1631 6.74331 -8.94242 -40.0613 5.09021
lowerback 9.09104 -8.62572 11.4273
upperback -1.14 -9.79227 12.4261
thorax -5.96399 -5.09044 8.57931
lowerneck -15.8051 16.9524 17.0504
upperneck 7.36059 22.3777 -19.6506
head 9.12864 9.83101 -5.75342
rclavicle -1.4233e-013 5.40694e-014
rhumerus -12.7942 -33.5157 -14.1969
rradius 90.1588
rwrist -31.1218
rhand -28.0179 -23.6323
rfingers 7.12502
rthumb -1.40321 -53.6075
lclavicle -1.4233e-013 5.40694e-014
lhumerus 16.1764 -16.2798 37.0785
lradius 33.2049
lwrist -8.35445
lhand -4.37374 -30.9154
lfingers 7.12502
lthumb 21.395 -2.07669
rfemur 33.736 25.9139 12.5973
rtibia -43.8433
rfoot 10.6974 -13.3338
rtoes -10.2076
lfemur 40.8191 28.6104 -16.8109
ltibia -31.5424
lfoot 0.248336 20.5081
ltoes -16.7531
206
root -0.947068 17.1547 6.77065 -8.95064 -40.4558 5.17362
lowerback 9.2956 -8.70422 11.5319
upperback -1.48004 -9.78838 12.5788
thorax -6.44406 -5.0919 8.79651
lowerneck -15.2712 17.0413 17.344
upperneck 7.5845 22.5901 -19.7055
head 9.19515 9.96414 -5.79224
rclavicle 8.50798e-014 6.36111e-015
rhumerus -13.4932 -34.149 -11.147
rradius 90.8419
rwrist -31.1541
rhand -27.9392 -22.5647
rfingers 7.12502
rthumb -1.3272 -52.5403
lclavicle 8.50798e-014 6.36111e-015
lhumerus 12.9536 -16.5805 36.595
lradius 33.1023
lwrist -8.68799
lhand -4.53877 -31.2113
lfingers 7.12502
lthumb 21.2365 -2.35467
rfemur 33.766 26.4453 12.5577
rtibia -44.0442
rfoot 10.6988 -13.4886
rtoes -10.4269
lfemur 40.857 28.6378 -17.0161
ltibia -31.5941
lfoot -0.0110173 20.7142
ltoes -15.6589
207
root -0.942042 17.1452 6.80261 -8.93596 -40.8247 5.21099
lowerback 8.89728 -8.70901 11.8947
upperback -1.42872 -9.84366 12.5617
thorax -6.22434 -5.13145 8.51352
lowerneck -15.1779 17.1502 17.5409
upperneck 7.5425 22.7201 -19.742
head 9.21697 10.0335 -5.80542
rclavicle 9.54166e-014 -7.31528e-014
rhumerus -14.359 -35.3512 -8.46529
rradius 91.686
rwrist -30.8701
rhand -27.8986 -21.6567
rfingers 7.12502
rthumb -1.28798 -51.6325
lclavicle 9.54166e-014 -7.31528e-014
lhumerus 10.4996 -16.2538 36.0072
lradius 32.7468
lwrist -9.34367
lhand -4.63881 -31.4562
lfingers 7.12502
lthumb 21.1404 -2.58882
rfemur 33.8286 26.89 12.5351
rtibia -44.2397
rfoot 10.7183 -13.5885
rtoes -10.7234
lfemur 40.9477 28.7264 -17.1419
ltibia -31.6447
lfoot -0.107079 20.8519
ltoes -13.5161
208
root -0.934391 17.1365 6.83413 -8.98717 -41.2063 5.33178
lowerback 8.24294 -8.63212 12.3968
upperback -1.19017 -9.86163 12.3313
thorax -5.72004 -5.15118 7.83652
lowerneck -15.2679 17.205 17.8223
upperneck 7.35726 22.6967 -19.7996
head 9.20613 10.0234 -5.8623
rclavicle 3.97569e-015 -4.77083e-014
rhumerus -15.6712 -36.7217 -5.97643
rradius 92.7288
rwrist -30.2281
rhand -28.1738 -21.0538
rfingers 7.12502
rthumb -1.55379 -51.0279
lclavicle 3.97569e-015 -4.77083e-014
lhumerus 8.631 -16.0745 35.0807
lradius 32.4918
lwrist -9.67744
lhand -6.81284 -30.6232
lfingers 7.12502
lthumb 19.0508 -1.53616
rfemur 33.8808 27.2927 12.4173
rtibia -44.4247
rfoot 10.7735 -13.6408
rtoes -10.9408
lfemur 41.0297 28.8768 -17.3296
ltibia -31.706
lfoot -0.0850023 20.9463
ltoes -15.2326
209
root -0.924867 17.126 6.86384 -9.03956 -41.5679 5.42013
lowerback 8.20323 -8.71817 12.5992
upperback -1.28687 -9.94775 12.3395
thorax -5.83409 -5.20025 7.76673
lowerneck -14.8358 17.3095 18.1091
upperneck 7.1805 22.88 -20.0391
head 9.17911 10.1326 -5.96316
rclavicle 2.22639e-014 1.17681e-013
rhumerus -16.2934 -37.4971 -3.87358
rradius 93.8545
rwrist -29.6505
rhand -28.5248 -20.4027
rfingers 7.12502
rthumb -1.89275 -50.374
lclavicle 2.22639e-014 1.17681e-013
lhumerus 5.85914 -16.1414 34.4724
lradius 32.4244
lwrist -9.59047
lhand -7.40665 -29.9267
lfingers 7.12502
lthumb 18.4797 -0.784462
rfemur 33.9521 27.6789 12.3329
rtibia -44.598
rfoot 10.8383 -13.6907
rtoes -11.0665
lfemur 41.1563 29.0604 -17.4547
ltibia -31.7952
lfoot -0.0487312 20.9828
ltoes -15.8995
210
root -0.913665 17.1112 6.89229 -9.02567 -41.9547 5.30924
lowerback 8.23354 -8.86485 12.8874
upperback -1.3468 -10.0981 12.4292
thorax -5.94513 -5.28362 7.76484
lowerneck -14.3047 17.4185 18.1877
upperneck 6.87308 23.0981 -20.2362
head 9.06787 10.2667 -6.02166
rclavicle 7.95139e-015 -1.39944e-013
rhumerus -16.5787 -38.3168 -2.08202
rradius 95.0192
rwrist -29.1377
rhand -28.7901 -19.5494
rfingers 7.12502
rthumb -2.14897 -49.5183
lclavicle 7.95139e-015 -1.39944e-013
lhumerus 2.84129 -16.2143 33.9011
lradius 32.3803
lwrist -9.15445
lhand -7.66441 -29.832
lfingers 7.12502
lthumb 18.2317 -0.66642
rfemur 34.0908 28.0014 12.4314
rtibia -44.7722
rfoot 10.9617 -13.6396
rtoes -11.5856
lfemur 41.4222 29.2609 -17.3546
ltibia -31.924
lfoot -0.102274 20.9948
ltoes -14.8594
211
root -0.902225 17.0969 6.92277 -8.91606 -42.3803 5.02197
lowerback 8.14681 -8.98469 13.2669
upperback -1.27274 -10.2536 12.5233
thorax -5.85788 -5.37045 7.67849
lowerneck -14.1043 17.5672 18.2288
upperneck 6.74225 23.3185 -20.2567
head 9.03926 10.3846 -5.99455
rclavicle 4.92986e-014 6.04305e-014
rhumerus -16.8605 -39.2747 -0.426258
rradius 96.1738
rwrist -28.4225
rhand -29.1435 -18.7649
rfingers 7.12502
rthumb -2.4903 -48.7301
lclavicle 4.92986e-014 6.04305e-014
lhumerus -0.0730207 -16.2896 33.2531
lradius 32.4525
lwrist -8.51838
lhand -8.10367 -29.8337
lfingers 7.12502
lthumb 17.8091 -0.629161
rfemur 34.2439 28.2189 12.6559
rtibia -44.9478
rfoot 11.0919 -13.5371
rtoes -11.9159
lfemur 41.7637 29.4467 -17.1041
ltibia -32.1053
lfoot -0.160289 21.0039
ltoes -12.3723
212
root -0.890486 17.0856 6.9509 -8.84157 -42.7795 4.90819
lowerback 8.00292 -9.03152 13.4992
upperback -1.20531 -10.3394 12.5361
thorax -5.73828 -5.41835 7.55215
lowerneck -14.0933 17.7221 18.3423
upperneck 6.73172 23.4992 -20.1671
head 9.06576 10.4761 -5.93703
rclavicle 7.15625e-015 3.18055e-015
rhumerus -17.3864 -40.2378 1.27412
rradius 97.3825
rwrist -27.6819
rhand -29.4629 -18.0684
rfingers 7.12502
rthumb -2.79876 -48.0298
lclavicle 7.15625e-015 3.18055e-015
lhumerus -2.82051 -16.5252 32.5296
lradius 32.7232
lwrist -7.56739
lhand -7.74165 -29.9125
lfingers 7.12502
lthumb 18.1574 -0.740032
rfemur 34.2894 28.4011 12.6895
rtibia -45.1369
rfoot 11.2398 -13.5032
rtoes -12.0233
lfemur 41.9892 29.6026 -17.07
ltibia -32.3341
lfoot -0.186487 21.1041
ltoes -11.6655
213
root -0.878461 17.0738 6.97423 -8.86776 -43.1595 4.9299
lowerback 8.1245 -9.06025 13.6309
upperback -1.29372 -10.3215 12.4904
thorax -5.93738 -5.41503 7.47528
lowerneck -13.8163 17.7985 18.5717
upperneck 6.66136 23.5991 -20.1617
head 9.04047 10.5487 -5.95976
rclavicle -5.88403e-014 3.49861e-014
rhumerus -17.971 -41.1123 2.91005
rradius 98.574
rwrist -27.1659
rhand -29.6119 -17.1744
rfingers 7.12502
rthumb -2.94269 -47.1338
lclavicle -5.88403e-014 3.49861e-014
lhumerus -5.68054 -17.3691 31.8992
lradius 32.9815
lwrist -6.86875
lhand -7.35494 -28.8578
lfingers 7.12502
lthumb 18.5294 0.279702
rfemur 34.3349 28.5937 12.6407
rtibia -45.3419
rfoot 11.5039 -13.4026
rtoes -12.9217
lfemur 42.2136 29.7764 -17.1355
ltibia -32.5952
lfoot -0.22277 21.2924
ltoes -11.1043
214
root -0.867441 17.0602 6.99748 -8.85713 -43.5137 4.84998
lowerback 8.27517 -9.09418 13.7997
upperback -1.37626 -10.3006 12.4616
thorax -6.14994 -5.41153 7.40412
lowerneck -13.476 17.8418 18.8153
upperneck 6.55904 23.6701 -20.2245
head 9.00172 10.6095 -6.01811
rclavicle -5.32743e-014 1.65389e-013
rhumerus -18.4472 -42.022 4.34607
rradius 99.7216
rwrist -26.5698
rhand -29.8412 -16.4379
rfingers 7.12502
rthumb -3.16405 -46.3941
lclavicle -5.32743e-014 1.65389e-013
lhumerus -8.51948 -18.2553 31.4088
lradius 33.1913
lwrist -6.16636
lhand -7.01507 -28.5537
lfingers 7.12502
lthumb 18.8563 0.552382
rfemur 34.4524 28.8238 12.713
rtibia -45.5641
rfoot 11.7271 -13.3433
rtoes -13.6363
lfemur 42.4791 29.9268 -17.1066
ltibia -32.8749
lfoot -0.200815 21.439
ltoes -10.3983
215
root -0.856788 17.0465 7.0229 -8.73784 -43.8061 4.70987
lowerback 8.2133 -9.12322 13.9976
upperback -1.39975 -10.3294 12.4428
thorax -6.17938 -5.43208 7.28383
lowerneck -13.2122 17.8888 19.0051
upperneck 6.39996 23.7293 -20.2724
head 8.94583 10.6601 -6.06294
rclavicle -2.38542e-015 6.04305e-014
rhumerus -18.9464 -42.8683 5.77643
rradius 100.955
rwrist -25.9674
rhand -30.1657 -15.8218
rfingers 7.12502
rthumb -3.47751 -45.7731
lclavicle -2.38542e-015 6.04305e-014
lhumerus -11.3609 -19.1044 30.9926
lradius 33.4921
lwrist -5.62188
lhand -6.91083 -28.433
lfingers 7.12502
lthumb 18.9566 0.663218
rfemur 34.5478 29.1029 12.7974
rtibia -45.8148
rfoot 11.8518 -13.447
rtoes -13.7199
lfemur 42.6467 30.0227 -17.1015
ltibia -33.1516
lfoot -0.118104 21.5498
ltoes -9.79289
216
root -0.846165 17.0318 7.0485 -8.68835 -44.0618 4.65904
lowerback 8.15852 -9.1468 14.1387
upperback -1.42708 -10.354 12.3815
thorax -6.21571 -5.44866 7.1456
lowerneck -13.0165 17.9203 19.1813
upperneck 6.36274 23.7573 -20.2087
head 8.91629 10.6957 -6.0719
rclavicle 1.82882e-014 1.11319e-013
rhumerus -19.4881 -43.5205 7.23171
rradius 102.236
rwrist -25.1995
rhand -30.6941 -15.4505
rfingers 7.12502
rthumb -3.98773 -45.3929
lclavicle 1.82882e-014 1.11319e-013
lhumerus -14.1983 -20.1657 30.6328
lradius 33.8431
lwrist -4.99394
lhand -6.7806 -28.3525
lfingers 7.12502
lthumb 19.0818 0.731456
rfemur 34.6519 29.3358 12.8001
rtibia -46.0499
rfoot 11.9948 -13.4923
rtoes -14.0667
lfemur 42.7886 30.1291 -17.1727
ltibia -33.3732
lfoot 0.011824 21.6799
ltoes -9.96598
